# xmcd CD database file
#
# Track frame offsets:
#	150
#	31409
#	75751
#	104992
#	126151
#	168517
#	180184
#	200770
#
# Disc length: 3142 seconds
#
# Revision: 0
# Processed by: cddbd v1.5.2PL0 Copyright (c) Steve Scherf et al.
# Submitted via: CDex 1.70beta2
#
DISCID=630c4408
DTITLE=La Campagnie des Musiques à Ouïr - Rendez Vous ?
DYEAR=2004
DGENRE=Jazz
TTITLE0=The Quest
TTITLE1=Ambass'a son
TTITLE2=Totem dub
TTITLE3=Christine s'envole
TTITLE4=Espania Cani
TTITLE5=L'araignée à moustaches
TTITLE6=Free at last
TTITLE7=This time +Shosholosa
EXTD=YEAR: 2004
EXTT0=
EXTT1=
EXTT2=
EXTT3=
EXTT4=
EXTT5=
EXTT6=
EXTT7=
PLAYORDER=
